# xmcd CD database file generated by Grip 3.2.0
# 
# Track frame offsets:
#       150
#       18830
#       34352
#       50279
#       66108
#       85337
#       101119
#       119019
#       134550
#       146106
#       167825
#       196990
#       223885
#       234671
# 
# Disc length: 3498 seconds
# 
# Revision: 2
# Processed by: cddbd v1.5.2PL0 Copyright (c) Steve Scherf et al.
# Submitted via: Grip 3.2.0
# 
DISCID=d80da80e
DTITLE=Janet Seidel - "Charade" Henry Mancini Songbook
DYEAR=2007
DGENRE=Jazz
TTITLE0=Dreamsville
TTITLE1=Slow Hot Wind
TTITLE2=Straight to Baby
TTITLE3=Whistling Away The Dark
TTITLE4=Days of Wine and Roses
TTITLE5=Charade
TTITLE6=Nothing to Lose
TTITLE7=Dear Heart
TTITLE8=The Loss of Love
TTITLE9=Mr Lucky
TTITLE10=Moment To Moment
TTITLE11=Crazy World
TTITLE12=(I Love You) Don't You Forget It
TTITLE13=Two For The Road
EXTD=YEAR: 2007 LaBrava
EXTT0=
EXTT1=
EXTT2=
EXTT3=
EXTT4=
EXTT5=
EXTT6=
EXTT7=
EXTT8=
EXTT9=
EXTT10=
EXTT11=
EXTT12=
EXTT13=
PLAYORDER=
